<svg xmlns="http://www.w3.org/2000/svg" viewBox="0 0 1200 675" width="1200" height="675" font-family="Inter, Segoe UI, Helvetica, Arial, sans-serif">

  <defs>
    <linearGradient id="bg" x1="0" y1="0" x2="1" y2="1">
      <stop offset="0%" stop-color="#0b1120"/>
      <stop offset="55%" stop-color="#0a0f1c"/>
      <stop offset="100%" stop-color="#140b12"/>
    </linearGradient>
    <radialGradient id="glow" cx="18%" cy="0%" r="85%">
      <stop offset="0%" stop-color="#dc2626" stop-opacity="0.30"/>
      <stop offset="100%" stop-color="#dc2626" stop-opacity="0"/>
    </radialGradient>
    <pattern id="grid" width="30" height="30" patternUnits="userSpaceOnUse">
      <path d="M30 0 L0 0 0 30" fill="none" stroke="#dc2626" stroke-opacity="0.07" stroke-width="1"/>
    </pattern>
    <marker id="arrow" viewBox="0 0 10 10" refX="9" refY="5" markerWidth="6" markerHeight="6" orient="auto-start-reverse">
      <path d="M 0 0 L 10 5 L 0 10 z" fill="#dc2626"/>
    </marker>
    <filter id="soft" x="-50%" y="-50%" width="200%" height="200%">
      <feGaussianBlur stdDeviation="10" result="b"/>
      <feMerge><feMergeNode in="b"/><feMergeNode in="SourceGraphic"/></feMerge>
    </filter>
  </defs>
  <rect width="1200" height="675" fill="url(#bg)"/>
  <rect width="1200" height="675" fill="url(#grid)"/>
  <rect width="1200" height="675" fill="url(#glow)"/>
  <rect x="0" y="0" width="6" height="675" fill="#dc2626"/>
  <text x="56" y="74" fill="#dc2626" font-size="17" font-weight="700" letter-spacing="3.5">ONGOING RESEARCH</text>
  <text x="56" y="124" fill="#f1f5f9" font-size="38" font-weight="800">FedQAT-Head — Federated Quantum Attention Transformer</text>
  <line x1="56" y1="150" x2="1144" y2="150" stroke="#dc2626" stroke-opacity="0.25" stroke-width="1.5"/>

  <rect x="56" y="210" width="250" height="92" rx="14" fill="#111827" stroke="#dc2626" stroke-opacity="0.35" stroke-width="1.5"/>
  <text x="181" y="244" fill="#f1f5f9" font-size="17" font-weight="700" text-anchor="middle">Client 1</text>
  <text x="181" y="268" fill="#94a3b8" font-size="13.5" text-anchor="middle">quantum attention head</text>
  <text x="181" y="289" fill="#94a3b8" font-size="13.5" text-anchor="middle">non-IID shard</text>
  <path d="M 316 256 C 420 256, 430 376, 520 376" fill="none" stroke="#dc2626" stroke-opacity="0.6" stroke-width="2.5" marker-end="url(#arrow)"/>
  <rect x="56" y="330" width="250" height="92" rx="14" fill="#111827" stroke="#dc2626" stroke-opacity="0.35" stroke-width="1.5"/>
  <text x="181" y="364" fill="#f1f5f9" font-size="17" font-weight="700" text-anchor="middle">Client 2</text>
  <text x="181" y="388" fill="#94a3b8" font-size="13.5" text-anchor="middle">quantum attention head</text>
  <text x="181" y="409" fill="#94a3b8" font-size="13.5" text-anchor="middle">non-IID shard</text>
  <path d="M 316 376 C 420 376, 430 376, 520 376" fill="none" stroke="#dc2626" stroke-opacity="0.6" stroke-width="2.5" marker-end="url(#arrow)"/>
  <rect x="56" y="450" width="250" height="92" rx="14" fill="#111827" stroke="#dc2626" stroke-opacity="0.35" stroke-width="1.5"/>
  <text x="181" y="484" fill="#f1f5f9" font-size="17" font-weight="700" text-anchor="middle">Client 3</text>
  <text x="181" y="508" fill="#94a3b8" font-size="13.5" text-anchor="middle">quantum attention head</text>
  <text x="181" y="529" fill="#94a3b8" font-size="13.5" text-anchor="middle">non-IID shard</text>
  <path d="M 316 496 C 420 496, 430 376, 520 376" fill="none" stroke="#dc2626" stroke-opacity="0.6" stroke-width="2.5" marker-end="url(#arrow)"/>
  <rect x="530" y="330" width="280" height="92" rx="14" fill="#1c1117" stroke="#dc2626" stroke-opacity="0.85" stroke-width="2"/>
  <text x="670" y="364" fill="#f1f5f9" font-size="17" font-weight="700" text-anchor="middle">QFedProx-Attention</text>
  <text x="670" y="388" fill="#94a3b8" font-size="13.5" text-anchor="middle">head-level proximal</text>
  <text x="670" y="409" fill="#94a3b8" font-size="13.5" text-anchor="middle">aggregation</text>
  <line x1="816" y1="376" x2="856" y2="376" stroke="#dc2626" stroke-opacity="0.75" stroke-width="2.5" marker-end="url(#arrow)"/>
  <rect x="862" y="330" width="282" height="92" rx="14" fill="#1c1117" stroke="#dc2626" stroke-opacity="0.85" stroke-width="2"/>
  <text x="1003" y="364" fill="#f1f5f9" font-size="17" font-weight="700" text-anchor="middle">Global Model</text>
  <text x="1003" y="388" fill="#94a3b8" font-size="13.5" text-anchor="middle">AHD: 30–44% less</text>
  <text x="1003" y="409" fill="#94a3b8" font-size="13.5" text-anchor="middle">communication payload</text>
  <text x="530" y="500" fill="#94a3b8" font-size="15">Attention-Head Distillation transfers knowledge between different-depth quantum</text>
  <text x="530" y="524" fill="#94a3b8" font-size="15">heads via Gram-matrix alignment.</text>
  <rect x="56" y="560" width="163.6" height="34" rx="17" fill="#dc2626" fill-opacity="0.10" stroke="#dc2626" stroke-opacity="0.35"/>
  <text x="137.8" y="582" fill="#f87171" font-size="13.5" font-weight="600" text-anchor="middle">Federated Learning</text>
  <rect x="231.6" y="560" width="98" height="34" rx="17" fill="#dc2626" fill-opacity="0.10" stroke="#dc2626" stroke-opacity="0.35"/>
  <text x="280.6" y="582" fill="#f87171" font-size="13.5" font-weight="600" text-anchor="middle">Quantum ML</text>
  <rect x="341.6" y="560" width="89.8" height="34" rx="17" fill="#dc2626" fill-opacity="0.10" stroke="#dc2626" stroke-opacity="0.35"/>
  <text x="386.5" y="582" fill="#f87171" font-size="13.5" font-weight="600" text-anchor="middle">PennyLane</text>
  <rect x="443.40000000000003" y="560" width="73.39999999999999" height="34" rx="17" fill="#dc2626" fill-opacity="0.10" stroke="#dc2626" stroke-opacity="0.35"/>
  <text x="480.1" y="582" fill="#f87171" font-size="13.5" font-weight="600" text-anchor="middle">PyTorch</text>
  <text x="56" y="641" fill="#64748b" font-size="15" font-style="italic">System architecture, drawn from the repository description.</text>
</svg>